<mxfile host="app.diagrams.net" modified="2023-06-09T13:19:03.416Z" agent="Mozilla/5.0 (Windows NT 10.0; Win64; x64) AppleWebKit/537.36 (KHTML, like Gecko) Chrome/114.0.0.0 Safari/537.36" version="21.3.8" etag="zcQgfPhFu7sDJNeoPUNr" type="github">
  <diagram name="Page-1" id="mejgyNVPz_6k0BrF2Bk3">
    <mxGraphModel>
      <root>
        <mxCell id="0" />
        <mxCell id="1" parent="0" />
      </root>
    </mxGraphModel>
  </diagram>
</mxfile>
